<svg version="1.2" xmlns="http://www.w3.org/2000/svg" viewBox="0 0 68 37" width="68" height="37"><defs><linearGradient id="P" gradientUnits="userSpaceOnUse"/><linearGradient id="g1" x1="26.3" y1="26.4" x2="46.6" y2="6.1" href="#P"><stop stop-color="#d0effa"/><stop offset="1" stop-color="#e2f3fb"/></linearGradient></defs><style>.s0{fill:#ffffff}.s1{fill:url(#g1)}</style><path class="s0" d="m13.6 36.7c-7.3 0-13.2-5.9-13.2-13.2c0-7.3 5.9-13.2 13.2-13.2q0.1 0 0.2 0c2.7-5.9 8.7-10 15.6-10c8.7 0 15.9 6.6 16.9 15.1q0 0 0.1 0c5.9 0 10.7 4.7 10.7 10.6c0 5.9-4.8 10.7-10.7 10.7" /><path class="s1" d="m40 36.7c-4.6 0-8.3-3.7-8.3-8.3c0-4.6 3.7-8.3 8.3-8.3q0.1 0 0.2 0c1.7-3.7 5.4-6.3 9.7-6.3c5.5 0 10.1 4.2 10.6 9.5q0.1 0 0.1 0c3.7 0 6.7 3 6.7 6.7c0 3.7-3 6.7-6.7 6.7" /></svg>