<svg version="1.2" xmlns="http://www.w3.org/2000/svg" viewBox="0 0 67 65" width="67" height="65"><defs><linearGradient id="P" gradientUnits="userSpaceOnUse"/><linearGradient id="g1" x1="26" y1="26.1" x2="46.3" y2="5.8" href="#P"><stop stop-color="#d0effa"/><stop offset="1" stop-color="#e2f3fb"/></linearGradient><linearGradient id="g2" x1="5.2" y1="41.8" x2="15.1" y2="41.8" href="#P"><stop stop-color="#00b9f2"/><stop offset="1" stop-color="#2ac9f5"/></linearGradient><linearGradient id="g3" x1="12.3" y1="41.8" x2="25.8" y2="41.8" href="#P"><stop stop-color="#00b9f2"/><stop offset="1" stop-color="#2ac9f5"/></linearGradient><linearGradient id="g4" x1="37.1" y1="41.8" x2="46.6" y2="41.8" href="#P"><stop stop-color="#00b9f2"/><stop offset="1" stop-color="#2ac9f5"/></linearGradient><linearGradient id="g5" x1="25.2" y1="41.8" x2="36.7" y2="41.8" href="#P"><stop stop-color="#00b9f2"/><stop offset="1" stop-color="#2ac9f5"/></linearGradient></defs><style>.s0{fill:#ffffff}.s1{fill:url(#g1)}.s2{fill:url(#g2)}.s3{fill:url(#g3)}.s4{fill:url(#g4)}.s5{fill:url(#g5)}</style><path class="s0" d="m13.3 36.4c-7.3 0-13.2-5.9-13.2-13.2c0-7.3 5.9-13.2 13.2-13.2q0.1 0 0.3 0c2.6-5.9 8.6-10 15.5-10c8.7 0 15.9 6.6 16.9 15.1q0 0 0.1 0c5.9 0 10.7 4.7 10.7 10.6c0 5.9-4.8 10.7-10.7 10.7" /><path class="s1" d="m39.7 36.4c-4.6 0-8.3-3.7-8.3-8.3c0-4.6 3.7-8.3 8.3-8.3q0.1 0 0.2 0c1.7-3.7 5.4-6.3 9.7-6.3c5.5 0 10.1 4.2 10.7 9.5q0 0 0 0c3.7 0 6.7 3 6.7 6.7c0 3.7-3 6.7-6.7 6.7" /><path class="s2" d="m6.9 59q-0.5 0-1-0.3c-0.9-0.5-1.3-1.7-0.7-2.7l6.5-11.3c0.5-0.9 1.8-1.2 2.7-0.7c1 0.6 1.3 1.8 0.7 2.7l-6.5 11.3c-0.3 0.6-1 1-1.7 1z" /><path class="s3" d="m14.1 65.1q-0.6 0-1-0.3c-1-0.6-1.3-1.8-0.8-2.7l10-17.4c0.6-0.9 1.8-1.2 2.8-0.7c0.9 0.6 1.2 1.8 0.7 2.7l-10 17.4c-0.4 0.6-1.1 1-1.7 1z" /><path class="s4" d="m38.8 58.1q-0.5 0-1-0.2c-0.9-0.6-1.2-1.8-0.7-2.8l6-10.4c0.6-0.9 1.8-1.2 2.7-0.7c1 0.6 1.3 1.8 0.8 2.7l-6 10.4c-0.4 0.7-1.1 1-1.8 1z" /><path class="s5" d="m26.9 61.6q-0.5 0-1-0.3c-0.9-0.5-1.2-1.7-0.7-2.7l8-13.9c0.6-0.9 1.8-1.2 2.7-0.7c1 0.6 1.3 1.8 0.8 2.7l-8 13.9c-0.4 0.6-1.1 1-1.8 1z" /></svg>