<svg version="1.2" xmlns="http://www.w3.org/2000/svg" viewBox="0 0 68 41" width="68" height="41"><defs><linearGradient id="P" gradientUnits="userSpaceOnUse"/><linearGradient id="g11" x1="28.5" y1="10.8" x2="46.8" y2="-7.5" href="#P"><stop stop-color="#ffb43a"/><stop offset="1" stop-color="#ffca3f"/></linearGradient><linearGradient id="g21" x1="26.7" y1="30.1" x2="47.1" y2="9.8" href="#P"><stop stop-color="#d0effa"/><stop offset="1" stop-color="#e2f3fb"/></linearGradient></defs><style>.s01{fill:url(#g11)}.s11{fill:#ffffff}.s21{fill:url(#g21)}</style><path class="s01" d="m62.1 13.1c0 7.2-5.8 13-12.9 13c-7.2 0-13-5.8-13-13c0-7.2 5.8-13 13-13c7.1 0 12.9 5.8 12.9 13z" /><path class="s11" d="m14 40.4c-7.3 0-13.2-5.9-13.2-13.2c0-7.3 5.9-13.2 13.2-13.2q0.2 0 0.3 0c2.6-5.9 8.6-10 15.5-10c8.8 0 16 6.6 16.9 15.1q0.1 0 0.1 0c5.9 0 10.7 4.7 10.7 10.6c0 5.9-4.8 10.7-10.7 10.7" /><path class="s21" d="m40.5 40.4c-4.6 0-8.3-3.7-8.3-8.3c0-4.6 3.7-8.3 8.3-8.3q0 0 0.1 0c1.7-3.7 5.4-6.3 9.8-6.3c5.5 0 10 4.2 10.6 9.5q0 0 0 0c3.7 0 6.7 3 6.7 6.7c0 3.7-3 6.7-6.7 6.7" /></svg>