<svg version="1.2" xmlns="http://www.w3.org/2000/svg" viewBox="0 0 68 59" width="68" height="59"><defs><linearGradient id="P" gradientUnits="userSpaceOnUse"/><linearGradient id="g1" x1="26.2" y1="26.1" x2="46.5" y2="5.8" href="#P"><stop stop-color="#d0effa"/><stop offset="1" stop-color="#e2f3fb"/></linearGradient><linearGradient id="g2" x1="4.3" y1="41.8" x2="14.3" y2="41.8" href="#P"><stop stop-color="#00b9f2"/><stop offset="1" stop-color="#2ac9f5"/></linearGradient><linearGradient id="g3" x1="15.5" y1="41.8" x2="25.4" y2="41.8" href="#P"><stop stop-color="#00b9f2"/><stop offset="1" stop-color="#2ac9f5"/></linearGradient><linearGradient id="g4" x1="26.6" y1="41.8" x2="36.6" y2="41.8" href="#P"><stop stop-color="#00b9f2"/><stop offset="1" stop-color="#2ac9f5"/></linearGradient></defs><style>.s0{fill:#ffffff}.s1{fill:url(#g1)}.s2{fill:url(#g2)}.s3{fill:url(#g3)}.s4{fill:url(#g4)}</style><path class="s0" d="m13.5 36.4c-7.3 0-13.2-5.9-13.2-13.2c0-7.3 5.9-13.2 13.2-13.2q0.1 0 0.2 0c2.7-5.9 8.6-10 15.5-10c8.8 0 16 6.6 17 15.1q0 0 0.1 0c5.9 0 10.6 4.7 10.6 10.6c0 5.9-4.7 10.7-10.6 10.7" /><path class="s1" d="m39.9 36.4c-4.6 0-8.3-3.7-8.3-8.3c0-4.6 3.7-8.3 8.3-8.3q0.1 0 0.1 0c1.7-3.7 5.4-6.3 9.8-6.3c5.5 0 10 4.2 10.6 9.5q0 0 0.1 0c3.7 0 6.7 3 6.7 6.7c0 3.7-3 6.7-6.7 6.7" /><path class="s2" d="m6.1 59q-0.5 0-1-0.3c-1-0.5-1.3-1.7-0.8-2.7l6.5-11.3c0.6-0.9 1.8-1.2 2.8-0.7c0.9 0.6 1.3 1.8 0.7 2.7l-6.5 11.3c-0.4 0.6-1 1-1.7 1z" /><path class="s3" d="m17.2 59q-0.5 0-1-0.3c-0.9-0.5-1.3-1.7-0.7-2.7l6.5-11.3c0.5-0.9 1.8-1.2 2.7-0.7c1 0.6 1.3 1.8 0.7 2.7l-6.5 11.3c-0.3 0.6-1 1-1.7 1z" /><path class="s4" d="m28.3 59q-0.5 0-1-0.3c-0.9-0.5-1.2-1.7-0.7-2.7l6.5-11.3c0.6-0.9 1.8-1.2 2.7-0.7c1 0.6 1.3 1.8 0.8 2.7l-6.5 11.3c-0.4 0.6-1.1 1-1.8 1z" /></svg>